<svg width="16" height="16" viewBox="0 0 16 16" xmlns="http://www.w3.org/2000/svg" xmlns:xlink="http://www.w3.org/1999/xlink">
    <path id="Path" fill="#000000" fill-opacity="0.8" fill-rule="evenodd" stroke="none" d="M 4.9375 4.0625 L 5.64461 4.76961 L 7.2929 6.4179 L 8 7.125 L 8.7071 6.4179 L 10.3554 4.76961 L 11.0625 4.0625 L 10.3554 3.355391 L 8.7071 1.707109 L 8 1 L 7.2929 1.707109 L 5.64461 3.355391 L 4.9375 4.0625 Z M 9.6483 4.0625 L 8 5.71079 L 6.3517 4.0625 L 8 2.414209 L 9.6483 4.0625 Z M 4.9375 11.9375 L 5.64461 12.6446 L 7.2929 14.2929 L 8 15 L 8.7071 14.2929 L 10.3554 12.6446 L 11.0625 11.9375 L 10.3554 11.2304 L 8.7071 9.5821 L 8 8.875 L 7.2929 9.5821 L 5.64461 11.2304 L 4.9375 11.9375 Z M 9.6483 11.9375 L 8 13.5858 L 6.3517 11.9375 L 8 10.2892 L 9.6483 11.9375 Z M 1.70711 8.7071 L 1 8 L 1.70711 7.2929 L 3.35539 5.64461 L 4.0625 4.9375 L 4.76961 5.64461 L 6.4179 7.2929 L 7.125 8 L 6.4179 8.7071 L 4.76961 10.3554 L 4.0625 11.0625 L 3.35539 10.3554 L 1.70711 8.7071 Z M 4.0625 9.6483 L 5.71079 8 L 4.0625 6.3517 L 2.41421 8 L 4.0625 9.6483 Z M 8.875 8 L 9.5821 8.7071 L 11.2304 10.3554 L 11.9375 11.0625 L 12.6446 10.3554 L 14.2929 8.7071 L 15 8 L 14.2929 7.2929 L 12.6446 5.64461 L 11.9375 4.9375 L 11.2304 5.64461 L 9.5821 7.2929 L 8.875 8 Z M 13.5858 8 L 11.9375 9.6483 L 10.2892 8 L 11.9375 6.3517 L 13.5858 8 Z"/>
</svg>
